<?xml version="1.0" encoding="UTF-8"?>
<svg xmlns="http://www.w3.org/2000/svg" xmlns:xlink="http://www.w3.org/1999/xlink" viewBox="0 0 16 16" width="16px" height="16px">
<g id="surface28716415">
<path style=" stroke:none;fill-rule:nonzero;fill:rgb(100%,100%,100%);fill-opacity:1;" d="M 8 0.640625 C 3.941406 0.640625 0.640625 3.941406 0.640625 8 C 0.640625 12.058594 3.941406 15.359375 8 15.359375 C 12.058594 15.359375 15.359375 12.058594 15.359375 8 C 15.359375 3.941406 12.058594 0.640625 8 0.640625 Z M 8 1.28125 C 11.714844 1.28125 14.71875 4.285156 14.71875 8 C 14.71875 8.023438 14.71875 8.046875 14.71875 8.066406 C 14.511719 8.050781 14.277344 8.03125 13.976562 8.019531 C 13.550781 8.003906 13.015625 8.011719 12.40625 8.039062 C 12.429688 7.882812 12.445312 7.722656 12.445312 7.5625 C 12.476562 6.960938 12.277344 6.402344 11.949219 5.90625 C 12.027344 5.632812 12.121094 5.285156 12.144531 4.890625 C 12.171875 4.441406 12.132812 3.941406 11.769531 3.605469 L 11.679688 3.519531 L 11.550781 3.519531 C 10.691406 3.519531 10.105469 3.878906 9.746094 4.164062 C 9.226562 3.964844 8.644531 3.839844 8 3.839844 C 7.351562 3.839844 6.761719 3.964844 6.222656 4.164062 C 5.863281 3.878906 5.277344 3.519531 4.417969 3.519531 L 4.289062 3.519531 L 4.199219 3.605469 C 3.847656 3.933594 3.8125 4.417969 3.835938 4.863281 C 3.855469 5.257812 3.941406 5.617188 4.019531 5.902344 C 3.6875 6.40625 3.488281 6.984375 3.488281 7.550781 C 3.488281 7.714844 3.503906 7.875 3.527344 8.03125 C 2.949219 8.003906 2.433594 8 2.023438 8.015625 C 1.722656 8.027344 1.488281 8.042969 1.28125 8.0625 C 1.28125 8.042969 1.28125 8.019531 1.28125 8 C 1.28125 4.285156 4.285156 1.28125 8 1.28125 Z M 4.605469 4.203125 C 5.253906 4.261719 5.738281 4.550781 5.964844 4.75 L 6.113281 4.882812 L 6.296875 4.808594 C 6.804688 4.601562 7.367188 4.480469 8 4.480469 C 8.632812 4.480469 9.195312 4.601562 9.664062 4.804688 L 9.851562 4.886719 L 10.003906 4.75 C 10.230469 4.550781 10.714844 4.261719 11.363281 4.203125 C 11.449219 4.34375 11.523438 4.546875 11.503906 4.851562 C 11.484375 5.21875 11.382812 5.617188 11.3125 5.855469 L 11.261719 6.011719 L 11.359375 6.140625 C 11.675781 6.574219 11.835938 7.039062 11.808594 7.535156 L 11.808594 7.550781 C 11.808594 8.351562 11.519531 8.988281 10.90625 9.464844 C 10.296875 9.9375 9.328125 10.238281 7.96875 10.238281 C 6.605469 10.238281 5.640625 9.9375 5.027344 9.464844 C 4.414062 8.988281 4.128906 8.351562 4.128906 7.550781 C 4.128906 7.082031 4.296875 6.566406 4.609375 6.140625 L 4.703125 6.015625 L 4.660156 5.863281 C 4.585938 5.609375 4.492188 5.203125 4.476562 4.832031 C 4.460938 4.527344 4.53125 4.332031 4.605469 4.203125 Z M 2.84375 8.328125 C 3.070312 8.328125 3.328125 8.34375 3.589844 8.355469 C 3.613281 8.453125 3.640625 8.554688 3.675781 8.648438 C 2.617188 8.671875 1.824219 8.777344 1.335938 8.867188 C 1.316406 8.707031 1.300781 8.546875 1.292969 8.382812 C 1.652344 8.347656 2.160156 8.316406 2.84375 8.328125 Z M 13.15625 8.332031 C 13.839844 8.324219 14.347656 8.355469 14.707031 8.390625 C 14.699219 8.550781 14.683594 8.710938 14.664062 8.867188 C 14.15625 8.773438 13.34375 8.667969 12.257812 8.652344 C 12.292969 8.558594 12.320312 8.460938 12.34375 8.363281 C 12.628906 8.347656 12.910156 8.335938 13.15625 8.332031 Z M 3.8125 8.964844 C 4.003906 9.347656 4.277344 9.691406 4.636719 9.96875 C 5.128906 10.351562 5.769531 10.617188 6.550781 10.757812 C 6.449219 10.863281 6.355469 10.980469 6.273438 11.101562 L 6.253906 11.085938 C 6.257812 11.082031 6.097656 11.164062 5.855469 11.183594 C 5.617188 11.207031 5.320312 11.199219 5.054688 11.199219 C 4.664062 11.199219 4.492188 11.015625 4.214844 10.675781 C 4.0625 10.472656 3.875 10.304688 3.695312 10.179688 C 3.511719 10.046875 3.351562 9.957031 3.15625 9.925781 L 3.128906 9.921875 L 3.105469 9.921875 C 2.953125 9.921875 2.808594 9.929688 2.675781 10.085938 C 2.609375 10.160156 2.5625 10.304688 2.589844 10.425781 C 2.621094 10.546875 2.699219 10.621094 2.765625 10.667969 C 3.203125 10.957031 3.28125 11.535156 3.554688 12.046875 C 3.8125 12.558594 4.363281 12.800781 4.929688 12.800781 L 5.761719 12.800781 L 5.761719 14.335938 C 3.507812 13.542969 1.8125 11.585938 1.386719 9.183594 C 1.875 9.09375 2.695312 8.980469 3.8125 8.964844 Z M 12.121094 8.96875 C 13.261719 8.976562 14.105469 9.089844 14.613281 9.183594 C 14.1875 11.585938 12.492188 13.542969 10.238281 14.335938 L 10.238281 12.671875 C 10.238281 12.164062 10.074219 11.605469 9.785156 11.140625 C 9.695312 10.996094 9.59375 10.863281 9.476562 10.742188 C 10.21875 10.597656 10.828125 10.335938 11.300781 9.96875 C 11.660156 9.691406 11.933594 9.351562 12.121094 8.96875 Z M 7.582031 10.910156 L 8.480469 10.910156 C 8.738281 10.910156 9.019531 11.121094 9.238281 11.476562 C 9.460938 11.835938 9.601562 12.316406 9.601562 12.671875 L 9.601562 14.527344 C 9.085938 14.652344 8.550781 14.71875 8 14.71875 C 7.449219 14.71875 6.914062 14.652344 6.398438 14.527344 L 6.398438 12.671875 C 6.398438 12.324219 6.550781 11.84375 6.785156 11.484375 C 7.023438 11.125 7.324219 10.910156 7.582031 10.910156 Z M 3.9375 11.289062 C 4.214844 11.578125 4.550781 11.839844 5.054688 11.839844 C 5.304688 11.839844 5.617188 11.847656 5.914062 11.824219 C 5.914062 11.824219 5.914062 11.820312 5.914062 11.820312 C 5.875 11.933594 5.847656 12.046875 5.824219 12.160156 L 4.929688 12.160156 C 4.535156 12.160156 4.253906 12.015625 4.125 11.761719 L 4.125 11.757812 L 4.121094 11.753906 C 4.070312 11.65625 4 11.460938 3.9375 11.289062 Z M 3.9375 11.289062 "/>
</g>
</svg>
