<?xml version="1.0" encoding="UTF-8"?>
<svg xmlns="http://www.w3.org/2000/svg" xmlns:xlink="http://www.w3.org/1999/xlink" viewBox="0 0 16 16" width="16px" height="16px">
<g id="surface28735323">
<path style=" stroke:none;fill-rule:nonzero;fill:rgb(100%,100%,100%);fill-opacity:1;" d="M 10.949219 1.75 C 9.035156 1.75 7.480469 3.304688 7.480469 5.21875 C 7.480469 5.335938 7.507812 5.449219 7.519531 5.558594 C 5.152344 5.332031 3.0625 4.195312 1.640625 2.449219 C 1.574219 2.367188 1.472656 2.320312 1.363281 2.328125 C 1.257812 2.335938 1.164062 2.398438 1.109375 2.488281 C 0.8125 3.003906 0.640625 3.59375 0.640625 4.230469 C 0.640625 5 0.914062 5.703125 1.339844 6.28125 C 1.257812 6.242188 1.167969 6.222656 1.089844 6.179688 C 0.992188 6.128906 0.871094 6.128906 0.777344 6.1875 C 0.679688 6.246094 0.621094 6.347656 0.621094 6.460938 L 0.621094 6.5 C 0.621094 7.679688 1.230469 8.703125 2.128906 9.328125 C 2.121094 9.328125 2.109375 9.332031 2.101562 9.328125 C 1.988281 9.3125 1.878906 9.351562 1.804688 9.433594 C 1.730469 9.515625 1.707031 9.632812 1.738281 9.738281 C 2.097656 10.851562 3.011719 11.699219 4.140625 12.011719 C 3.238281 12.546875 2.195312 12.859375 1.070312 12.859375 C 0.828125 12.859375 0.59375 12.847656 0.359375 12.820312 C 0.210938 12.800781 0.0664062 12.886719 0.015625 13.03125 C -0.0351562 13.171875 0.0195312 13.332031 0.148438 13.410156 C 1.59375 14.335938 3.308594 14.878906 5.148438 14.878906 C 8.136719 14.878906 10.480469 13.632812 12.050781 11.851562 C 13.621094 10.066406 14.441406 7.753906 14.441406 5.589844 C 14.441406 5.5 14.433594 5.410156 14.429688 5.320312 C 15.015625 4.871094 15.539062 4.34375 15.949219 3.730469 C 16.03125 3.609375 16.023438 3.453125 15.929688 3.34375 C 15.835938 3.234375 15.679688 3.199219 15.550781 3.261719 C 15.386719 3.332031 15.191406 3.339844 15.019531 3.398438 C 15.246094 3.097656 15.441406 2.769531 15.558594 2.398438 C 15.601562 2.273438 15.554688 2.136719 15.453125 2.050781 C 15.347656 1.972656 15.203125 1.960938 15.089844 2.03125 C 14.542969 2.355469 13.9375 2.582031 13.300781 2.71875 C 12.679688 2.140625 11.863281 1.75 10.949219 1.75 Z M 10.949219 2.390625 C 11.765625 2.390625 12.503906 2.738281 13.019531 3.289062 C 13.097656 3.371094 13.210938 3.402344 13.320312 3.378906 C 13.738281 3.296875 14.132812 3.175781 14.519531 3.019531 C 14.296875 3.320312 14.023438 3.578125 13.699219 3.769531 C 13.554688 3.839844 13.484375 4.011719 13.539062 4.164062 C 13.589844 4.316406 13.75 4.40625 13.910156 4.371094 C 14.230469 4.332031 14.515625 4.203125 14.820312 4.121094 C 14.546875 4.417969 14.246094 4.683594 13.921875 4.921875 C 13.832031 4.984375 13.78125 5.089844 13.789062 5.199219 C 13.796875 5.328125 13.800781 5.457031 13.800781 5.589844 C 13.800781 7.589844 13.03125 9.761719 11.570312 11.421875 C 10.109375 13.078125 7.960938 14.238281 5.148438 14.238281 C 3.875 14.238281 2.667969 13.957031 1.578125 13.460938 C 2.929688 13.355469 4.175781 12.878906 5.179688 12.089844 C 5.285156 12.007812 5.328125 11.867188 5.285156 11.738281 C 5.242188 11.609375 5.125 11.523438 4.988281 11.519531 C 3.933594 11.5 3.050781 10.886719 2.578125 10.019531 C 2.597656 10.019531 2.613281 10.019531 2.628906 10.019531 C 2.945312 10.019531 3.257812 9.980469 3.550781 9.898438 C 3.691406 9.859375 3.785156 9.730469 3.78125 9.582031 C 3.777344 9.4375 3.671875 9.3125 3.53125 9.28125 C 2.390625 9.050781 1.539062 8.121094 1.339844 6.96875 C 1.664062 7.082031 1.992188 7.167969 2.351562 7.179688 C 2.496094 7.1875 2.628906 7.097656 2.671875 6.957031 C 2.71875 6.820312 2.664062 6.667969 2.539062 6.589844 C 1.78125 6.082031 1.28125 5.214844 1.28125 4.230469 C 1.28125 3.863281 1.375 3.53125 1.5 3.210938 C 3.101562 4.964844 5.339844 6.132812 7.871094 6.261719 C 7.96875 6.265625 8.066406 6.222656 8.132812 6.148438 C 8.199219 6.070312 8.222656 5.96875 8.199219 5.871094 C 8.152344 5.664062 8.121094 5.441406 8.121094 5.21875 C 8.121094 3.652344 9.382812 2.390625 10.949219 2.390625 Z M 10.949219 2.390625 "/>
</g>
</svg>
